<svg width="120" height="33" viewBox="0 0 120 33" xmlns="http://www.w3.org/2000/svg"><title>CoinEx LOGO svg</title><defs><linearGradient x1="100%" y1="50%" x2="0%" y2="50%" id="a"><stop stop-color="#22E6B8" offset="0%"/><stop stop-color="#00C1CE" offset="100%"/></linearGradient></defs><g fill="none"><path d="M21.4 12.169c-2.57-2.498-6.655-2.498-9.198 0-2.543 2.525-2.516 6.635.027 9.16 2.543 2.525 6.682 2.552 9.226.027.043-.043.222-.238.536-.585l-3.067-3.049c-.315.364-.482.554-.5.572a2.23 2.23 0 0 1-3.138 0c-.866-.86-.866-2.257-.027-3.09.839-.832 2.246-.832 3.111.027l8.201 8.137c-2.245 3.224-6.01 5.268-10.068 5.268-6.71 0-12.174-5.453-12.174-12.169S9.794 4.298 16.503 4.298c3.923 0 7.522 1.88 9.767 4.916-.361.417-1.286 1.464-2.773 3.14l3.026 2.995 5.023-5.625C28.949 3.868 23.078 0 16.503 0 7.386 0 0 7.387 0 16.467c0 9.08 7.386 16.467 16.503 16.467 4.14 0 7.576-1.29 10.93-4.137 3.058-2.579 4.495-6.154 4.495-6.154L21.4 12.169z" fill="url(#a)"/><path d="M89.15 18.693v7.892h-3.254v-8.064c-.33-1.853-1.98-3.262-3.965-3.262-2.015 0-3.684 1.452-3.978 3.347v7.98h-3.254V12.262l2.496 1.568a7.3 7.3 0 0 1 4.736-1.729c3.826 0 6.959 2.907 7.226 6.591h-.008zM55 10.445a10.063 10.063 0 0 0-2.852 2.194 6.634 6.634 0 0 0-5.371-2.72c-3.656 0-6.62 2.932-6.62 6.548s2.964 6.547 6.62 6.547c1.187 0 2.3-.309 3.264-.85a9.851 9.851 0 0 0 1.67 3.169 10.273 10.273 0 0 1-4.934 1.252c-5.65 0-10.23-4.53-10.23-10.118S41.126 6.35 46.776 6.35c3.37 0 6.358 1.61 8.222 4.096zm4.84 16.14c-3.993 0-7.23-3.197-7.23-7.142 0-3.945 3.237-7.142 7.23-7.142 3.992 0 7.229 3.197 7.229 7.142 0 3.945-3.237 7.142-7.23 7.142zm0-3.174c2.218 0 4.016-1.777 4.016-3.968s-1.798-3.968-4.016-3.968-4.016 1.777-4.016 3.968 1.798 3.968 4.016 3.968zm9.237-11.11h3.213v14.284h-3.213V12.301zm34.94-2.53h-9.191v5.193h8.924v3.224h-8.924v5.173h9.19v3.224h-12.65V6.547h12.65v3.224zm6.756 9.642l-4.947-7.112h4.09c.122.199.297.472.53.82a2036.945 2036.945 0 0 1 1.687 2.54c.27.405.461.706.575.901l.165.282 2.939-4.543h3.892l-4.86 6.992 5.036 7.292h-4.04l-3.102-4.669-.168.246c-.136.201-.34.511-.613.93-.271.418-.562.86-.872 1.328-.31.469-.602.913-.874 1.332-.231.356-.407.634-.527.833h-3.86l4.949-7.172z" fill="#4A4A4A"/><path d="M31.928 2.16c0-.586.216-1.092.648-1.52.432-.426.95-.64 1.553-.64a2.15 2.15 0 0 1 1.568.64c.433.418.649.93.649 1.535 0 .606-.216 1.122-.649 1.55a2.1 2.1 0 0 1-1.553.64 2.15 2.15 0 0 1-1.568-.64 2.115 2.115 0 0 1-.648-1.565z" fill="url(#a)" transform="translate(36.546 6.349)"/></g></svg>