<svg width="232" height="62" viewBox="0 0 232 62" xmlns="http://www.w3.org/2000/svg"><title>Download_on_the_App_Store_Badge Copy 3</title><g transform="translate(1 1)" fill="none" fill-rule="evenodd"><rect stroke="#979797" fill="#000" width="230" height="60" rx="30"/><g fill="#FFF"><path d="M43.686 25.482v9.047a2.14 2.14 0 0 1-2.149 2.164c-1.195 0-2.351-.969-2.351-2.164v-9.047c0-1.18 1.156-2.148 2.351-2.148 1.18 0 2.149.968 2.149 2.148zm.844 12.266a2.307 2.307 0 0 0 2.312 2.312h1.555l.023 4.774c0 2.882 4.313 2.859 4.313 0V40.06h2.906v4.774c0 2.867 4.336 2.875 4.336 0V40.06h1.578a2.304 2.304 0 0 0 2.297-2.312V23.732H44.53v14.016zm19.375-14.774H44.444c0-3.343 2-6.25 4.968-7.765L47.92 12.45c-.218-.383.336-.625.524-.297l1.515 2.781c2.727-1.21 5.86-1.148 8.461 0l1.508-2.773c.195-.336.742-.086.524.297l-1.493 2.75c2.946 1.515 4.946 4.422 4.946 7.765zm-13.336-4.336a.82.82 0 0 0-.82-.82.81.81 0 0 0-.797.82c0 .446.359.82.796.82a.82.82 0 0 0 .82-.82zm8.86 0c0-.445-.36-.82-.798-.82a.82.82 0 1 0 0 1.64c.438 0 .797-.374.797-.82zm7.405 4.696c-1.18 0-2.148.945-2.148 2.148v9.047c0 1.203.969 2.164 2.148 2.164 1.203 0 2.352-.969 2.352-2.164v-9.047c0-1.203-1.156-2.148-2.352-2.148z" fill-rule="nonzero"/><path d="M90.576 18.946c0 1.568-.476 2.805-1.428 3.71-.952.896-2.287 1.344-4.004 1.344H81.7V13.766h3.444c1.783 0 3.117.392 4.004 1.176.952.84 1.428 2.175 1.428 4.004zm-1.47 0c0-1.381-.303-2.366-.91-2.954-.616-.597-1.633-.896-3.052-.896h-2.016v7.56h2.016c1.335 0 2.338-.34 3.01-1.022.635-.635.952-1.53.952-2.688zM99.2 20.318c0 1.12-.373 2.025-1.12 2.716-.7.644-1.568.966-2.604.966s-1.9-.322-2.59-.966c-.747-.69-1.12-1.596-1.12-2.716 0-1.092.34-2.002 1.022-2.73.681-.728 1.577-1.092 2.688-1.092 1.11 0 2.016.369 2.716 1.106.672.719 1.008 1.624 1.008 2.716zm-1.498 0c0-.728-.205-1.32-.616-1.778-.41-.467-.947-.7-1.61-.7-.663 0-1.195.229-1.596.686-.41.457-.616 1.055-.616 1.792 0 .71.22 1.283.658 1.722.41.42.929.63 1.554.63.644 0 1.176-.215 1.596-.644.42-.43.63-.999.63-1.708zm13.832-3.654l-2.59 7.224h-1.4l-1.792-5.264-1.792 5.264h-1.4l-2.59-7.224h1.512l1.778 5.53 1.792-5.53h1.4l1.792 5.53 1.778-5.53h1.512zm7.658 7.224h-1.428v-4.13c0-.681-.126-1.171-.378-1.47-.261-.29-.663-.434-1.204-.434-.877 0-1.6.43-2.17 1.288v4.746h-1.428v-7.266h1.428v.77c.71-.588 1.465-.882 2.268-.882 1.941 0 2.912 1.083 2.912 3.248v4.13zm3.122 0h-1.442v-10.22h1.442v10.22zm8.834-3.57c0 1.12-.373 2.025-1.12 2.716-.7.644-1.568.966-2.604.966s-1.9-.322-2.59-.966c-.747-.69-1.12-1.596-1.12-2.716 0-1.092.34-2.002 1.022-2.73.681-.728 1.577-1.092 2.688-1.092 1.11 0 2.016.369 2.716 1.106.672.719 1.008 1.624 1.008 2.716zm-1.498 0c0-.728-.205-1.32-.616-1.778-.41-.467-.947-.7-1.61-.7-.663 0-1.195.229-1.596.686-.41.457-.616 1.055-.616 1.792 0 .71.22 1.283.658 1.722.41.42.929.63 1.554.63.644 0 1.176-.215 1.596-.644.42-.43.63-.999.63-1.708zm9.03 3.57h-1.4a3.602 3.602 0 0 1-.252-.966c-.747.719-1.582 1.078-2.506 1.078-.681 0-1.25-.177-1.708-.532-.457-.355-.686-.835-.686-1.442 0-.933.41-1.624 1.232-2.072.765-.42 1.97-.663 3.612-.728-.056-.504-.205-.863-.448-1.078-.243-.215-.602-.322-1.078-.322-.681 0-1.218.322-1.61.966l-1.344-.616c.644-1.12 1.629-1.68 2.954-1.68.999 0 1.755.285 2.268.854.485.541.728 1.302.728 2.282v3.094c0 .43.08.817.238 1.162zm-1.694-3.346c-2.25.047-3.374.541-3.374 1.484 0 .15.06.285.182.406.168.159.41.238.728.238a2.41 2.41 0 0 0 1.596-.574c.457-.383.747-.9.868-1.554zm9.674 3.346h-1.428v-.826c-.607.625-1.381.938-2.324.938-.877 0-1.629-.35-2.254-1.05-.663-.747-.994-1.69-.994-2.828 0-1.036.308-1.9.924-2.59.616-.681 1.419-1.022 2.408-1.022.887 0 1.633.285 2.24.854v-3.696h1.428v10.22zm-1.428-3.64c0-.737-.2-1.316-.602-1.736-.401-.43-.915-.644-1.54-.644-.55 0-1.013.205-1.386.616-.373.42-.56.966-.56 1.638 0 .765.2 1.39.602 1.876.364.439.784.658 1.26.658.653 0 1.18-.196 1.582-.588.43-.43.644-1.036.644-1.82zm16.954 3.64h-1.526l-1.162-2.814h-4.522l-1.148 2.814h-1.526l4.228-10.234h1.428l4.228 10.234zm-3.262-4.158l-1.68-4.116-1.68 4.116h3.36zm12.222-3.178c0 .915-.34 1.633-1.022 2.156-.644.504-1.489.756-2.534.756h-3.052v4.424h-1.442V13.654h4.494c1.064 0 1.913.238 2.548.714.672.513 1.008 1.241 1.008 2.184zm-1.484 0c0-1.045-.7-1.568-2.1-1.568h-3.024v3.136h3.024c1.4 0 2.1-.523 2.1-1.568zm11.998 7.336h-1.876l-4.242-5.222-1.708 1.54v3.682h-1.428V13.654h1.428v4.774l5.222-4.774h2.002l-4.452 4.046 5.054 6.188zm-97.084 16.49h4.422L88.36 38.2c-.55-1.76-1.034-3.564-1.54-5.39h-.088c-.462 1.848-.968 3.63-1.496 5.39l-.66 2.178zM90.978 47l-1.364-4.62h-5.632L82.596 47H80l5.368-16.192h2.948L93.684 47h-2.706zm4.62 0V34.9h2.068l.198 1.672h.066c1.122-1.078 2.354-1.98 4.004-1.98 2.574 0 3.718 1.716 3.718 4.796V47h-2.53v-7.304c0-2.09-.616-2.926-2.046-2.926-1.122 0-1.892.572-2.97 1.65V47h-2.508zm17.908.286c-3.036 0-4.994-2.31-4.994-6.314 0-3.938 2.486-6.38 5.192-6.38 1.386 0 2.266.528 3.256 1.364l-.11-2.002v-4.488h2.53V47h-2.068l-.22-1.364h-.066c-.902.924-2.156 1.65-3.52 1.65zm.594-2.09c1.012 0 1.87-.462 2.75-1.474v-5.918c-.902-.814-1.76-1.1-2.662-1.1-1.694 0-3.058 1.606-3.058 4.224 0 2.75 1.078 4.268 2.97 4.268zM123.186 47V34.9h2.068l.198 2.178h.066c.858-1.562 2.134-2.486 3.432-2.486.594 0 .99.088 1.364.264l-.462 2.2a3.58 3.58 0 0 0-1.21-.198c-.99 0-2.178.682-2.948 2.596V47h-2.508zm13.596.286c-2.992 0-5.698-2.31-5.698-6.314 0-4.048 2.706-6.38 5.698-6.38 2.992 0 5.698 2.332 5.698 6.38 0 4.004-2.706 6.314-5.698 6.314zm0-2.068c1.914 0 3.102-1.694 3.102-4.246 0-2.574-1.188-4.29-3.102-4.29-1.892 0-3.08 1.716-3.08 4.29 0 2.552 1.188 4.246 3.08 4.246zM145.45 47V34.9h2.508V47h-2.508zm1.254-14.366c-.924 0-1.606-.616-1.606-1.496 0-.902.682-1.496 1.606-1.496s1.628.594 1.628 1.496c0 .88-.704 1.496-1.628 1.496zm9.24 14.652c-3.036 0-4.994-2.31-4.994-6.314 0-3.938 2.486-6.38 5.192-6.38 1.386 0 2.266.528 3.256 1.364l-.11-2.002v-4.488h2.53V47h-2.068l-.22-1.364h-.066c-.902.924-2.156 1.65-3.52 1.65zm.594-2.09c1.012 0 1.87-.462 2.75-1.474v-5.918c-.902-.814-1.76-1.1-2.662-1.1-1.694 0-3.058 1.606-3.058 4.224 0 2.75 1.078 4.268 2.97 4.268z"/></g></g></svg>