<svg xmlns="http://www.w3.org/2000/svg" width="150" height="115" viewBox="0 0 150 115"><g fill="none"><path fill="#E0F6F6" d="M139.03 64.032a2.397 2.397 0 0 0 2.428 2.428 2.397 2.397 0 0 0 2.428-2.428 2.397 2.397 0 0 0-2.428-2.429c-.456 0-.835.076-1.215.304-.758.38-1.214 1.214-1.214 2.125M1.821 44.68H0c0 .986.835 1.821 1.821 1.821.987 0 1.822-.835 1.822-1.821 0-.987-.835-1.822-1.822-1.822a2.02 2.02 0 0 0-.91.228C.304 43.39 0 43.996 0 44.68"/><path fill="#52CBCA" d="M129.164 43.086a3.758 3.758 0 0 0-3.795-3.794 3.758 3.758 0 0 0-3.794 3.794 3.758 3.758 0 0 0 3.794 3.795 3.963 3.963 0 0 0 3.795-3.795zm-9.79 0c0-3.263 2.732-5.995 5.995-5.995s5.995 2.732 5.995 5.995-2.732 5.995-5.995 5.995-5.995-2.807-5.995-5.995zm10.093-39.235a3.758 3.758 0 0 0-3.794-3.794 3.758 3.758 0 0 0-3.795 3.794 3.758 3.758 0 0 0 3.795 3.795c2.049 0 3.718-1.67 3.794-3.795zm-5.464 0c0-.91.76-1.593 1.594-1.593.835 0 1.594.759 1.594 1.593 0 .835-.76 1.594-1.594 1.594-.835 0-1.594-.683-1.594-1.594zm20.49 27.548h-1.821c-.683 0-1.214.531-1.214 1.214 0 .683.53 1.215 1.214 1.215h1.821v1.821c0 .683.532 1.214 1.215 1.214s1.214-.531 1.214-1.214v-1.821h1.821c.683 0 1.214-.532 1.214-1.215s-.53-1.214-1.214-1.214h-1.821v-1.821c0-.683-.531-1.214-1.214-1.214-.683 0-1.215.53-1.215 1.214v1.821zM12.674 82.928H9.638c-.531 0-.987.455-.987.987 0 .607.38.986.987.986h3.036v3.036c0 .531.455.986.986.986.607 0 .987-.38.987-.986V84.9h3.035c.531 0 .987-.455.987-.986 0-.607-.38-.987-.987-.987h-3.035v-3.036c0-.53-.456-.986-.987-.986-.607 0-.986.38-.986.986v3.036z"/><path fill="#E0F6F6" d="M48.57 109.49c0 2.58 10.472 4.629 23.297 4.629 12.825 0 23.298-2.05 23.298-4.63s-10.473-4.629-23.298-4.629c-12.825 0-23.298 2.125-23.298 4.63z"/><path fill="#52CBCA" d="M33.164 24.645h-8.652a1.199 1.199 0 0 1-1.214-1.214c0-.683.531-1.214 1.214-1.214h8.652c.683 0 1.214.53 1.214 1.214 0 .683-.531 1.214-1.214 1.214zm11.231-14.191a1.199 1.199 0 0 1-1.214-1.214V1.27c0-.683.531-1.214 1.214-1.214.683 0 1.214.531 1.214 1.214v7.97c-.075.758-.607 1.214-1.214 1.214zm-6.526 5.691c-.304 0-.607-.151-.835-.379l-6.83-6.906a1.191 1.191 0 0 1 0-1.67 1.191 1.191 0 0 1 1.67 0l6.905 6.906a1.191 1.191 0 0 1 0 1.67c-.303.228-.607.38-.91.38z"/><path fill="#E0F6F6" d="M102.071 90.365c0 3.415-2.808 6.223-6.223 6.223h-49.1c-3.415 0-6.223-2.808-6.223-6.223V32.613c0-3.415 2.808-6.222 6.223-6.222h49.1c3.415 0 6.223 2.807 6.223 6.222v57.752z"/><path fill="#52CBCA" d="M95.772 97.802h-49.1c-4.098 0-7.437-3.339-7.437-7.437V32.613c0-4.098 3.339-7.437 7.437-7.437h49.1c4.098 0 7.437 3.34 7.437 7.437v57.752c0 4.022-3.339 7.437-7.437 7.437zm-49.1-70.273a5.004 5.004 0 0 0-5.009 5.009v57.751a5.004 5.004 0 0 0 5.009 5.009h49.1a5.004 5.004 0 0 0 5.009-5.009V32.613a5.004 5.004 0 0 0-5.009-5.008c0-.076-49.1-.076-49.1-.076z"/><path fill="#FFF" d="M110.798 82.17c0 3.414-2.807 6.222-6.223 6.222H55.4c-3.415 0-6.223-2.808-6.223-6.223V24.493c0-3.415 2.808-6.223 6.223-6.223h49.1c3.416 0 6.224 2.808 6.224 6.223V82.17h.075z"/><path fill="#E0F6F6" d="M104.5 18.194H55.4c-3.416 0-6.224 2.808-6.224 6.223v5.692c0-3.415 2.808-6.223 6.223-6.223h49.1c3.416 0 6.224 2.808 6.224 6.223v-5.692c.075-3.415-2.732-6.223-6.223-6.223z"/><path fill="#52CBCA" d="M104.5 89.682H55.4c-4.099 0-7.438-3.339-7.438-7.437V24.493c0-4.098 3.34-7.437 7.437-7.437h49.1c4.099 0 7.438 3.34 7.438 7.437v57.752c0 4.022-3.34 7.437-7.437 7.437zM55.4 19.41a5.004 5.004 0 0 0-5.01 5.008V82.17a5.004 5.004 0 0 0 5.01 5.009h49.1a5.004 5.004 0 0 0 5.008-5.009V24.493a5.004 5.004 0 0 0-5.008-5.008l-49.1-.076z"/><path fill="#E0F6F6" d="M99.643 32.993H58.435c-.683 0-1.214-.531-1.214-1.138 0-.608.53-1.215 1.214-1.215h41.208c.683 0 1.214.532 1.214 1.215s-.607 1.138-1.214 1.138zm-14.42 44.775H58.588a1.199 1.199 0 0 1-1.215-1.215 1.2 1.2 0 0 1 1.215-1.214H85.3c.683 0 1.214.531 1.214 1.214-.152.683-.607 1.215-1.29 1.215z"/><path fill="#52CBCA" d="M59.497 51.662a2.201 2.201 0 1 0 2.201-2.201c-1.214 0-2.2.986-2.2 2.2zm36.579-.228a2.201 2.201 0 0 0 4.401 0c0-1.214-.986-2.2-2.2-2.2-1.139 0-2.201.986-2.201 2.2zm-7.361 12.37H70.957a1.199 1.199 0 0 1-1.215-1.214 1.2 1.2 0 0 1 1.215-1.215h17.758c.683 0 1.214.532 1.214 1.215s-.531 1.214-1.214 1.214z"/></g></svg>